<svg width="21" height="20" viewBox="0 0 21 20" fill="none" xmlns="http://www.w3.org/2000/svg">
<path d="M8.54415 10.4338L7.92011 10.0177L7.92011 10.0177L8.54415 10.4338ZM4.87596 14.584C4.6462 14.9286 4.73933 15.3943 5.08398 15.624C5.42862 15.8538 5.89427 15.7607 6.12404 15.416L4.87596 14.584ZM16.124 7.41603C16.3538 7.07138 16.2607 6.60573 15.916 6.37596C15.5714 6.1462 15.1057 6.23933 14.876 6.58397L16.124 7.41603ZM12.4558 11.5662L13.0799 11.9823L13.0799 11.9823L12.4558 11.5662ZM10.7294 11.4587L11.4002 11.1233L11.4002 11.1233L10.7294 11.4587ZM10.2706 10.5413L10.9415 10.2058L10.9415 10.2058L10.2706 10.5413ZM7.92011 10.0177L4.87596 14.584L6.12404 15.416L9.16819 10.8498L7.92011 10.0177ZM14.876 6.58397L11.8318 11.1502L13.0799 11.9823L16.124 7.41603L14.876 6.58397ZM11.4002 11.1233L10.9415 10.2058L9.59981 10.8767L10.0586 11.7942L11.4002 11.1233ZM11.8318 11.1502C11.7253 11.3099 11.486 11.295 11.4002 11.1233L10.0586 11.7942C10.6595 12.996 12.3345 13.1003 13.0799 11.9823L11.8318 11.1502ZM9.16819 10.8498C9.27467 10.6901 9.51396 10.705 9.59981 10.8767L10.9415 10.2058C10.3405 9.00401 8.66546 8.89973 7.92011 10.0177L9.16819 10.8498ZM5.5 1.75H15.5V0.25H5.5V1.75ZM18.75 5V15H20.25V5H18.75ZM15.5 18.25H5.5V19.75H15.5V18.25ZM2.25 15V5H0.75V15H2.25ZM5.5 18.25C4.53599 18.25 3.88843 18.2484 3.40539 18.1835C2.94393 18.1214 2.74643 18.0142 2.61612 17.8839L1.55546 18.9445C2.01093 19.4 2.57773 19.5857 3.20552 19.6701C3.81174 19.7516 4.57839 19.75 5.5 19.75V18.25ZM0.75 15C0.75 15.9216 0.748407 16.6883 0.829911 17.2945C0.914316 17.9223 1.09999 18.4891 1.55546 18.9445L2.61612 17.8839C2.4858 17.7536 2.37858 17.5561 2.31654 17.0946C2.25159 16.6116 2.25 15.964 2.25 15H0.75ZM18.75 15C18.75 15.964 18.7484 16.6116 18.6835 17.0946C18.6214 17.5561 18.5142 17.7536 18.3839 17.8839L19.4445 18.9445C19.9 18.4891 20.0857 17.9223 20.1701 17.2945C20.2516 16.6883 20.25 15.9216 20.25 15H18.75ZM15.5 19.75C16.4216 19.75 17.1883 19.7516 17.7945 19.6701C18.4223 19.5857 18.9891 19.4 19.4445 18.9445L18.3839 17.8839C18.2536 18.0142 18.0561 18.1214 17.5946 18.1835C17.1116 18.2484 16.464 18.25 15.5 18.25V19.75ZM15.5 1.75C16.464 1.75 17.1116 1.75159 17.5946 1.81654C18.0561 1.87858 18.2536 1.9858 18.3839 2.11612L19.4445 1.05546C18.9891 0.599986 18.4223 0.414316 17.7945 0.329911C17.1883 0.248407 16.4216 0.25 15.5 0.25V1.75ZM20.25 5C20.25 4.07839 20.2516 3.31174 20.1701 2.70552C20.0857 2.07773 19.9 1.51093 19.4445 1.05546L18.3839 2.11612C18.5142 2.24643 18.6214 2.44393 18.6835 2.90539C18.7484 3.38843 18.75 4.03599 18.75 5H20.25ZM5.5 0.25C4.57839 0.25 3.81174 0.248407 3.20552 0.329911C2.57773 0.414316 2.01093 0.599986 1.55546 1.05546L2.61612 2.11612C2.74643 1.9858 2.94393 1.87858 3.40539 1.81654C3.88843 1.75159 4.53599 1.75 5.5 1.75V0.25ZM2.25 5C2.25 4.03599 2.25159 3.38843 2.31654 2.90539C2.37858 2.44393 2.4858 2.24643 2.61612 2.11612L1.55546 1.05546C1.09999 1.51093 0.914316 2.07773 0.829911 2.70552C0.748407 3.31174 0.75 4.07839 0.75 5H2.25Z" fill="white" fill-opacity="0.15"/>
</svg>
