<svg width="25" height="24" viewBox="0 0 25 24" fill="none" xmlns="http://www.w3.org/2000/svg">
<path d="M3.5 6.4V6.4C3.5 5.07452 4.57452 4 5.9 4L19.6143 4C19.7871 4 19.8735 4 19.9438 4.02112C20.1047 4.06944 20.2306 4.19531 20.2789 4.3562C20.3 4.42655 20.3 4.51294 20.3 4.68571V4.68571C20.3 5.72238 20.3 6.24071 20.1733 6.6628C19.8834 7.62813 19.1281 8.38338 18.1628 8.67325C17.7407 8.8 17.2224 8.8 16.1857 8.8H16.1M3.5 6.4V6.4C3.5 7.72548 4.57452 8.8 5.9 8.8L19.5 8.8C20.4428 8.8 20.9142 8.8 21.2071 9.09289C21.5 9.38579 21.5 9.85719 21.5 10.8L21.5 13.6M3.5 6.4L3.5 18C3.5 19.8856 3.5 20.8284 4.08579 21.4142C4.67157 22 5.61438 22 7.5 22L19.5 22C20.4428 22 20.9142 22 21.2071 21.7071C21.5 21.4142 21.5 20.9428 21.5 20V18.4M21.5 18.4H18.7C17.7572 18.4 17.2858 18.4 16.9929 18.1071C16.7 17.8142 16.7 17.3428 16.7 16.4V15.6C16.7 14.6572 16.7 14.1858 16.9929 13.8929C17.2858 13.6 17.7572 13.6 18.7 13.6H21.5M21.5 18.4V13.6" stroke="white" stroke-opacity="0.15" stroke-width="1.5"/>
</svg>
